<?xml version="1.0" ?><svg height="72" viewBox="0 0 72 72" width="72" xmlns="http://www.w3.org/2000/svg"><g fill="none" fill-rule="evenodd"><rect fill="#7100E7" height="72" rx="8" width="72"/><path d="M24.207491,55.6305643 C24.4074917,55.7290022 24.3715541,55.4883762 24.3543665,55.7821274 L24.7403055,56.0602535 C26.7965636,57.1930704 26.7200008,57.7961977 30.493453,59.0352651 C32.8450247,59.8071431 35.6747232,60.2055821 38.3466086,59.8930809 C51.0763458,58.3977626 58.7295007,46.2383401 54.9263608,34.4586067 C54.4419839,32.9601633 53.5982306,31.2585942 52.7529148,29.9851517 C52.4497887,29.5304624 52.0419746,29.0992108 51.8747864,28.6617091 C51.7107233,28.5148335 51.7341609,28.5413961 51.5794728,28.2413949 C51.3450969,28.3445203 51.4950974,28.3070202 51.4232222,28.1538946 C51.0169706,27.7898307 50.5435312,27.1851408 50.1325921,26.7867017 C49.6857154,26.3538876 49.2654012,25.9241984 48.7560242,25.5288843 C42.7653759,20.8835537 35.624723,19.7304242 28.5200078,22.9069991 C24.6793678,24.6226308 23.5449884,26.3757626 22.416859,27.0804529 C22.3402962,25.1616954 22.5481095,14.6975921 22.2574833,13.792901 C21.4731053,11.356954 17.7730909,11.3757041 17.1434009,14.0179019 C16.9355876,14.8944678 17.054338,25.8491981 17.0527755,27.2710786 C17.048088,31.1976565 16.782462,41.3633211 17.4887147,44.6211463 C17.9980917,46.9742805 18.9246578,49.2071017 20.0465372,50.9180459 C20.9309157,52.2696137 21.8809194,53.4789934 23.0481114,54.5680601 C23.3934253,54.8883739 23.9793651,55.3696258 24.207491,55.6305643 M28.5340703,36.3320515 C23.6871764,37.2570551 24.5871799,44.7102092 29.8325129,44.0195815 C31.787208,43.7633305 33.4575271,41.8273854 33.0481505,39.4648762 C32.7247117,37.5976814 30.7747041,35.9054873 28.5340703,36.3320515 M22.4512341,41.3992588 C21.5012304,30.5054663 34.9528454,20.967929 46.004451,30.2210901 C48.2091471,32.0664098 50.2779052,35.6539238 50.5357187,39.8742528 C51.2388464,51.3524226 37.421605,59.8571433 26.9684392,50.9227334 C24.2996788,48.6414745 22.7746729,45.0961482 22.4512341,41.3992588" fill="#FFF"/></g></svg>